<mxfile host="app.diagrams.net" modified="2023-11-12T14:44:59.617Z" agent="Mozilla/5.0 (Windows NT 10.0; Win64; x64) AppleWebKit/537.36 (KHTML, like Gecko) Chrome/119.0.0.0 Safari/537.36" version="22.1.0" etag="iPjdsqqhkAaNc2y1LShW" type="github">
  <diagram name="Page-1" id="U4NVZrc5IR9k7y1pjHXG">
    <mxGraphModel>
      <root>
        <mxCell id="0" />
        <mxCell id="1" parent="0" />
      </root>
    </mxGraphModel>
  </diagram>
</mxfile>
